// Geo DataFile Version 2.0
// Comment goes here
// ASCII
// 
// DATASET POLYDATA
cl=0.4; 
Point(1) = { 0.48324,  0.94919,  1.00000, cl}; 
Point(2) = { 0.56209,  0.76898,  1.00000, cl}; 
Point(3) = { 0.48266,  0.89111,  0.89023, cl}; 
Point(4) = { 0.52322,  0.80362,  0.89984, cl}; 
Point(5) = { 0.51112,  1.00000,  1.00000, cl}; 
Point(6) = { 0.49743,  0.87815,  0.81345, cl}; 
Point(7) = { 0.51771,  0.89252,  0.77001, cl}; 
Point(8) = { 0.57027,  1.00000,  0.79252, cl}; 
Point(9) = { 1.00000,  0.73335,  1.00000, cl}; 
Point(10) = { 0.96455,  0.68722,  1.00000, cl}; 
Point(11) = { 1.00000,  1.00000,  1.00000, cl}; 
Point(12) = { 1.00000,  1.00000,  0.89255, cl}; 
Point(13) = { 0.85143,  0.75439,  0.83451, cl}; 
Point(14) = { 0.55881,  0.83010,  0.77362, cl}; 
Point(15) = { 1.00000,  0.95716,  0.88846, cl}; 
Point(16) = { 0.52214,  0.82112,  0.83514, cl}; 
Point(17) = { 0.96510,  0.69409,  0.97382, cl}; 
Point(18) = { 1.00000,  0.73591,  0.98914, cl}; 
Point(19) = { 1.00000,  0.00000,  0.22273, cl}; 
Point(20) = { 0.62828,  0.00000,  0.37380, cl}; 
Point(21) = { 1.00000,  0.00000,  0.41551, cl}; 
Point(22) = { 1.00000,  0.17163,  0.00000, cl}; 
Point(23) = { 1.00000,  0.41448,  0.00000, cl}; 
Point(24) = { 0.76734,  0.24448,  0.00000, cl}; 
Point(25) = { 1.00000,  0.48091,  0.04557, cl}; 
Point(26) = { 1.00000,  0.55547,  0.12003, cl}; 
Point(27) = { 0.97692,  0.57545,  0.12201, cl}; 
Point(28) = { 0.54895,  0.33290,  0.37439, cl}; 
Point(29) = { 0.56805,  0.45183,  0.31349, cl}; 
Point(30) = { 0.66277,  0.62097,  0.33834, cl}; 
Point(31) = { 0.54130,  0.02227,  0.38025, cl}; 
Point(32) = { 0.62207,  0.23753,  0.06806, cl}; 
Point(33) = { 0.48479,  0.10543,  0.29529, cl}; 
Point(34) = { 0.94911,  0.61330,  0.16192, cl}; 
Point(35) = { 1.00000,  0.56647,  0.14995, cl}; 
Point(36) = { 1.00000,  0.38976,  0.41068, cl}; 
Point(37) = { 0.88510,  0.64563,  0.21619, cl}; 
Point(38) = { 0.77555,  0.68001,  0.34001, cl}; 
Point(39) = { 0.68752,  0.65721,  0.32319, cl}; 
Point(40) = { 0.53113,  0.34250,  0.18567, cl}; 
Point(41) = { 1.00000,  0.06666,  0.46405, cl}; 
Point(42) = { 0.68800,  0.66203,  0.33411, cl}; 
Point(43) = { 0.51476,  0.04791,  0.39595, cl}; 
Point(44) = { 0.52953,  0.07241,  0.41545, cl}; 
Point(45) = { 0.48127,  0.10818,  0.30006, cl}; 
Point(46) = { 0.48717,  0.08475,  0.37005, cl}; 
Point(47) = { 0.50774,  0.14749,  0.40084, cl}; 
Point(48) = { 0.52001,  0.33055,  0.20429, cl}; 
Point(49) = { 0.51204,  0.22267,  0.44484, cl}; 
Point(50) = { 0.97012,  0.26370,  0.91153, cl}; 
Point(51) = { 0.96664,  0.25084,  0.91076, cl}; 
Point(52) = { 0.95646,  0.25353,  0.91140, cl}; 
Point(53) = { 0.68565,  0.67433,  0.34692, cl}; 
Point(54) = { 0.66714,  0.21692,  0.79044, cl}; 
Point(55) = { 0.58703,  0.34183,  0.66764, cl}; 
Point(56) = { 1.00000,  0.60699,  0.59262, cl}; 
Point(57) = { 1.00000,  0.31626,  0.89177, cl}; 
Point(58) = { 1.00000,  0.22264,  0.84900, cl}; 
Point(59) = { 1.00000,  0.54978,  0.73735, cl}; 
Point(60) = { 0.96734,  0.24860,  0.90870, cl}; 
Point(61) = { 0.77913,  0.71117,  0.37112, cl}; 
Point(62) = { 0.70261,  0.70693,  0.37761, cl}; 
Point(63) = { 0.87563,  0.68563,  0.48463, cl}; 
Point(64) = { 0.83341,  0.65972,  0.58106, cl}; 
Point(65) = { 0.70436,  0.67422,  0.50672, cl}; 
Point(66) = { 0.91921,  0.24658,  0.89730, cl}; 
Point(67) = { 0.20770,  0.96664,  1.00000, cl}; 
Point(68) = { 0.28006,  0.93107,  0.94147, cl}; 
Point(69) = { 0.14208,  0.86376,  1.00000, cl}; 
Point(70) = { 0.00000,  0.54978,  0.73735, cl}; 
Point(71) = { 0.00000,  0.57527,  0.79393, cl}; 
Point(72) = { 0.00929,  0.54365,  0.74606, cl}; 
Point(73) = { 0.09437,  0.93066,  0.37560, cl}; 
Point(74) = { 0.23572,  1.00000,  0.40897, cl}; 
Point(75) = { 0.13689,  1.00000,  0.43087, cl}; 
Point(76) = { 0.05505,  0.57218,  0.64042, cl}; 
Point(77) = { 0.05949,  0.54748,  0.69966, cl}; 
Point(78) = { 0.39749,  0.88842,  0.77019, cl}; 
Point(79) = { 0.34225,  0.98807,  0.44819, cl}; 
Point(80) = { 0.19803,  0.83561,  0.43205, cl}; 
Point(81) = { 0.00000,  0.60699,  0.59262, cl}; 
Point(82) = { 0.03255,  0.85156,  0.37170, cl}; 
Point(83) = { 0.00000,  0.81714,  0.39512, cl}; 
Point(84) = { 0.32638,  1.00000,  0.44012, cl}; 
Point(85) = { 0.15650,  1.00000,  1.00000, cl}; 
Point(86) = { 0.00000,  0.95716,  0.88846, cl}; 
Point(87) = { 0.03139,  1.00000,  0.89986, cl}; 
Point(88) = { 0.02473,  0.76554,  1.00000, cl}; 
Point(89) = { 0.13314,  1.00000,  1.00000, cl}; 
Point(90) = { 0.00000,  0.73591,  0.98914, cl}; 
Point(91) = { 0.01376,  0.42454,  1.00000, cl}; 
Point(92) = { 0.09354,  0.36236,  1.00000, cl}; 
Point(93) = { 0.02994,  0.35826,  0.94642, cl}; 
Point(94) = { 0.00000,  0.73335,  1.00000, cl}; 
Point(95) = { 0.03246,  0.37336,  0.87030, cl}; 
Point(96) = { 0.47247,  0.44768,  1.00000, cl}; 
Point(97) = { 0.46895,  0.46898,  0.88424, cl}; 
Point(98) = { 0.12579,  0.41670,  0.75336, cl}; 
Point(99) = { 0.47471,  0.46172,  1.00000, cl}; 
Point(100) = { 0.00000,  0.49800,  1.00000, cl}; 
Point(101) = { 0.00000,  0.84611,  0.35358, cl}; 
Point(102) = { 0.21568,  0.37056,  0.10108, cl}; 
Point(103) = { 0.20022,  0.38221,  0.10284, cl}; 
Point(104) = { 0.21292,  0.37004,  0.10057, cl}; 
Point(105) = { 0.21709,  0.10903,  0.47904, cl}; 
Point(106) = { 0.35692,  0.09996,  0.26966, cl}; 
Point(107) = { 0.00000,  0.38976,  0.41068, cl}; 
Point(108) = { 0.00000,  0.56647,  0.14995, cl}; 
Point(109) = { 0.32047,  0.04722,  0.40554, cl}; 
Point(110) = { 0.18545,  0.34702,  0.63413, cl}; 
Point(111) = { 0.00000,  0.55547,  0.12003, cl}; 
Point(112) = { 0.47261,  0.44688,  0.00435, cl}; 
Point(113) = { 0.00000,  0.85920,  0.34777, cl}; 
Point(114) = { 0.00000,  0.71446,  0.08027, cl}; 
Point(115) = { 0.56209,  0.76898,  0.00000, cl}; 
Point(116) = { 0.47471,  0.46172,  0.00000, cl}; 
Point(117) = { 0.63516,  0.80749,  0.37978, cl}; 
Point(118) = { 0.48374,  1.00000,  0.09602, cl}; 
Point(119) = { 0.55103,  1.00000,  0.38020, cl}; 
Point(120) = { 0.48324,  0.94919,  0.00000, cl}; 
Point(121) = { 0.14208,  0.86376,  0.00000, cl}; 
Point(122) = { 0.20770,  0.96664,  0.00000, cl}; 
Point(123) = { 0.08240,  0.83464,  0.02532, cl}; 
Point(124) = { 0.16379,  0.98823,  0.03552, cl}; 
Point(125) = { 0.16365,  1.00000,  0.05774, cl}; 
Point(126) = { 0.49966,  0.99799,  0.43351, cl}; 
Point(127) = { 0.50027,  1.00000,  0.43199, cl}; 
Point(128) = { 0.02284,  0.89900,  0.34452, cl}; 
Point(129) = { 0.13033,  1.00000,  0.16977, cl}; 
Point(130) = { 0.62828,  1.00000,  0.37380, cl}; 
Point(131) = { 1.00000,  0.90485,  0.34622, cl}; 
Point(132) = { 1.00000,  1.00000,  0.41551, cl}; 
Point(133) = { 1.00000,  0.84611,  0.35358, cl}; 
Point(134) = { 1.00000,  0.85920,  0.34777, cl}; 
Point(135) = { 0.99169,  0.84472,  0.34895, cl}; 
Point(136) = { 1.00000,  0.81714,  0.39512, cl}; 
Point(137) = { 1.00000,  0.31093,  0.92895, cl}; 
Point(138) = { 0.67080,  0.20555,  0.83556, cl}; 
Point(139) = { 0.76734,  0.24448,  1.00000, cl}; 
Point(140) = { 1.00000,  0.41448,  1.00000, cl}; 
Point(141) = { 0.63633,  0.22817,  1.00000, cl}; 
Point(142) = { 1.00000,  0.49800,  1.00000, cl}; 
Point(143) = { 1.00000,  0.57527,  0.79393, cl}; 
Point(144) = { 0.00000,  0.21354,  0.94561, cl}; 
Point(145) = { 0.00000,  0.31626,  0.89177, cl}; 
Point(146) = { 0.00000,  0.31093,  0.92895, cl}; 
Point(147) = { 0.00000,  0.19569,  0.91125, cl}; 
Point(148) = { 0.00000,  0.22264,  0.84900, cl}; 
Point(149) = { 0.05207,  0.15532,  1.00000, cl}; 
Point(150) = { 0.57027,  0.00000,  0.79252, cl}; 
Point(151) = { 0.50027,  0.00000,  0.43199, cl}; 
Point(152) = { 0.32638,  0.00000,  0.44012, cl}; 
Point(153) = { 0.15650,  0.00000,  1.00000, cl}; 
Point(154) = { 0.51112,  0.00000,  1.00000, cl}; 
Point(155) = { 0.29059,  0.02692,  0.42193, cl}; 
Point(156) = { 0.20244,  0.07214,  0.48365, cl}; 
Point(157) = { 0.17993,  0.07961,  0.52005, cl}; 
Point(158) = { 0.07991,  0.06621,  0.91748, cl}; 
Point(159) = { 0.13854,  0.01170,  1.00000, cl}; 
Point(160) = { 1.00000,  0.00000,  0.89255, cl}; 
Point(161) = { 1.00000,  0.00000,  1.00000, cl}; 
Point(162) = { 1.00000,  0.17163,  1.00000, cl}; 
Point(163) = { 1.00000,  0.21354,  0.94561, cl}; 
Point(164) = { 1.00000,  0.19569,  0.91125, cl}; 
Point(165) = { 0.51112,  1.00000,  0.00000, cl}; 
Point(166) = { 1.00000,  1.00000,  0.22273, cl}; 
Point(167) = { 1.00000,  1.00000,  0.00000, cl}; 
Point(168) = { 1.00000,  0.73335,  0.00000, cl}; 
Point(169) = { 0.96455,  0.68722,  0.00000, cl}; 
Point(170) = { 1.00000,  0.71446,  0.08027, cl}; 
Point(171) = { 0.96233,  0.65953,  0.10539, cl}; 
Point(172) = { 0.93305,  0.64591,  0.17868, cl}; 
Point(173) = { 0.00000,  0.17163,  0.00000, cl}; 
Point(174) = { 0.00000,  0.00000,  0.22273, cl}; 
Point(175) = { 0.00000,  0.00000,  0.00000, cl}; 
Point(176) = { 0.13033,  0.00000,  0.16977, cl}; 
Point(177) = { 0.16329,  0.03096,  0.11619, cl}; 
Point(178) = { 0.16365,  0.00000,  0.05774, cl}; 
Point(179) = { 0.13314,  0.00000,  0.00000, cl}; 
Point(180) = { 0.15112,  0.00000,  0.01770, cl}; 
Point(181) = { 0.13854,  0.01170,  0.00000, cl}; 
Point(182) = { 0.05207,  0.15532,  0.00000, cl}; 
Point(183) = { 0.00000,  0.90485,  0.34622, cl}; 
Point(184) = { 0.15112,  1.00000,  0.01770, cl}; 
Point(185) = { 0.00000,  0.73335,  0.00000, cl}; 
Point(186) = { 0.00000,  1.00000,  0.00000, cl}; 
Point(187) = { 0.00000,  1.00000,  0.22273, cl}; 
Point(188) = { 0.13314,  1.00000,  0.00000, cl}; 
Point(189) = { 0.02473,  0.76554,  0.00000, cl}; 
Point(190) = { 0.00000,  0.17163,  1.00000, cl}; 
Point(191) = { 0.00000,  0.00000,  0.89255, cl}; 
Point(192) = { 0.00000,  0.00000,  1.00000, cl}; 
Point(193) = { 0.03139,  0.00000,  0.89986, cl}; 
Point(194) = { 0.13314,  0.00000,  1.00000, cl}; 
Point(195) = { 0.55103,  0.00000,  0.38020, cl}; 
Point(196) = { 0.63633,  0.22817,  0.00000, cl}; 
Point(197) = { 1.00000,  0.00000,  0.00000, cl}; 
Point(198) = { 0.48374,  0.00000,  0.09602, cl}; 
Point(199) = { 0.51112,  0.00000,  0.00000, cl}; 
Point(200) = { 0.00000,  0.48091,  0.04557, cl}; 
Point(201) = { 0.00000,  0.41448,  0.00000, cl}; 
Point(202) = { 0.01376,  0.42454,  0.00000, cl}; 
Point(203) = { 0.09354,  0.36236,  0.00000, cl}; 
Point(204) = { 0.00000,  0.00000,  0.41551, cl}; 
Point(205) = { 0.00000,  0.06666,  0.46405, cl}; 
Point(206) = { 0.23572,  0.00000,  0.40897, cl}; 
Point(207) = { 0.13689,  0.00000,  0.43087, cl}; 
Point(208) = { 0.17645,  0.06450,  0.48228, cl}; 
Point(209) = { 0.00000,  0.41448,  1.00000, cl}; 
Point(210) = { 0.00000,  1.00000,  0.41551, cl}; 
Point(211) = { 0.15650,  1.00000,  0.00000, cl}; 
Point(212) = { 0.47247,  0.44768,  0.00000, cl}; 
Point(213) = { 0.00000,  0.49800,  0.00000, cl}; 
Point(214) = { 1.00000,  0.49800,  0.00000, cl}; 
Point(215) = { 0.00000,  1.00000,  0.89255, cl}; 
Point(216) = { 0.15650,  0.00000,  0.00000, cl}; 
Point(217) = { 0.00000,  1.00000,  1.00000, cl}; 
Line(1) = {1, 2}; 
Line(2) = {2, 4}; 
Line(3) = {4, 3}; 
Line(4) = {3, 1}; 
Line(5) = {3, 6}; 
Line(6) = {6, 7}; 
Line(7) = {7, 8}; 
Line(8) = {8, 5}; 
Line(9) = {5, 1}; 
Line(10) = {5, 11}; 
Line(11) = {11, 9}; 
Line(12) = {9, 10}; 
Line(13) = {10, 2}; 
Line(14) = {8, 12}; 
Line(15) = {12, 11}; 
Line(16) = {7, 14}; 
Line(17) = {14, 13}; 
Line(18) = {13, 15}; 
Line(19) = {15, 12}; 
Line(20) = {4, 16}; 
Line(21) = {16, 6}; 
Line(22) = {16, 14}; 
Line(23) = {10, 17}; 
Line(24) = {17, 13}; 
Line(25) = {15, 18}; 
Line(26) = {18, 9}; 
Line(27) = {17, 18}; 
Line(28) = {19, 20}; 
Line(29) = {20, 21}; 
Line(30) = {21, 19}; 
Line(31) = {22, 23}; 
Line(32) = {23, 24}; 
Line(33) = {24, 22}; 
Line(34) = {25, 26}; 
Line(35) = {26, 27}; 
Line(36) = {27, 25}; 
Line(37) = {28, 29}; 
Line(38) = {29, 30}; 
Line(39) = {30, 28}; 
Line(40) = {19, 22}; 
Line(41) = {24, 32}; 
Line(42) = {32, 33}; 
Line(43) = {33, 31}; 
Line(44) = {31, 20}; 
Line(45) = {26, 35}; 
Line(46) = {35, 34}; 
Line(47) = {34, 27}; 
Line(48) = {35, 36}; 
Line(49) = {36, 38}; 
Line(50) = {38, 37}; 
Line(51) = {37, 34}; 
Line(52) = {23, 25}; 
Line(53) = {37, 39}; 
Line(54) = {39, 40}; 
Line(55) = {40, 32}; 
Line(56) = {21, 41}; 
Line(57) = {41, 36}; 
Line(58) = {38, 42}; 
Line(59) = {42, 39}; 
Line(60) = {31, 43}; 
Line(61) = {43, 44}; 
Line(62) = {44, 41}; 
Line(63) = {33, 45}; 
Line(64) = {45, 46}; 
Line(65) = {46, 43}; 
Line(66) = {46, 47}; 
Line(67) = {47, 44}; 
Line(68) = {30, 42}; 
Line(69) = {47, 28}; 
Line(70) = {40, 48}; 
Line(71) = {48, 45}; 
Line(72) = {29, 48}; 
Line(73) = {28, 49}; 
Line(74) = {49, 47}; 
Line(75) = {50, 51}; 
Line(76) = {51, 52}; 
Line(77) = {52, 50}; 
Line(78) = {42, 53}; 
Line(79) = {53, 30}; 
Line(80) = {49, 55}; 
Line(81) = {55, 54}; 
Line(82) = {54, 44}; 
Line(83) = {41, 58}; 
Line(84) = {58, 57}; 
Line(85) = {57, 59}; 
Line(86) = {59, 56}; 
Line(87) = {56, 36}; 
Line(88) = {50, 57}; 
Line(89) = {58, 60}; 
Line(90) = {60, 51}; 
Line(91) = {38, 61}; 
Line(92) = {61, 62}; 
Line(93) = {62, 53}; 
Line(94) = {56, 63}; 
Line(95) = {63, 61}; 
Line(96) = {63, 64}; 
Line(97) = {64, 65}; 
Line(98) = {65, 62}; 
Line(99) = {59, 64}; 
Line(100) = {52, 66}; 
Line(101) = {66, 54}; 
Line(102) = {55, 65}; 
Line(103) = {66, 60}; 
Line(104) = {67, 68}; 
Line(105) = {68, 69}; 
Line(106) = {69, 67}; 
Line(107) = {70, 71}; 
Line(108) = {71, 72}; 
Line(109) = {72, 70}; 
Line(110) = {73, 74}; 
Line(111) = {74, 75}; 
Line(112) = {75, 73}; 
Line(113) = {76, 77}; 
Line(114) = {77, 78}; 
Line(115) = {78, 79}; 
Line(116) = {79, 80}; 
Line(117) = {80, 76}; 
Line(118) = {72, 77}; 
Line(119) = {76, 81}; 
Line(120) = {81, 70}; 
Line(121) = {80, 82}; 
Line(122) = {82, 83}; 
Line(123) = {83, 81}; 
Line(124) = {67, 85}; 
Line(125) = {85, 84}; 
Line(126) = {84, 79}; 
Line(127) = {78, 68}; 
Line(128) = {75, 87}; 
Line(129) = {87, 86}; 
Line(130) = {86, 83}; 
Line(131) = {82, 73}; 
Line(132) = {69, 88}; 
Line(133) = {88, 89}; 
Line(134) = {89, 85}; 
Line(135) = {87, 89}; 
Line(136) = {88, 90}; 
Line(137) = {90, 86}; 
Line(138) = {71, 90}; 
Line(139) = {74, 84}; 
Line(140) = {91, 92}; 
Line(141) = {92, 93}; 
Line(142) = {93, 91}; 
Line(143) = {88, 94}; 
Line(144) = {94, 90}; 
Line(145) = {92, 96}; 
Line(146) = {96, 97}; 
Line(147) = {97, 98}; 
Line(148) = {98, 95}; 
Line(149) = {95, 93}; 
Line(150) = {72, 95}; 
Line(151) = {98, 77}; 
Line(152) = {16, 97}; 
Line(153) = {96, 99}; 
Line(154) = {99, 4}; 
Line(155) = {99, 69}; 
Line(156) = {68, 3}; 
Line(157) = {71, 100}; 
Line(158) = {100, 91}; 
Line(159) = {94, 100}; 
Line(160) = {6, 78}; 
Line(161) = {83, 101}; 
Line(162) = {101, 82}; 
Line(163) = {102, 103}; 
Line(164) = {103, 104}; 
Line(165) = {104, 102}; 
Line(166) = {103, 108}; 
Line(167) = {108, 107}; 
Line(168) = {107, 105}; 
Line(169) = {105, 109}; 
Line(170) = {109, 106}; 
Line(171) = {106, 104}; 
Line(172) = {45, 106}; 
Line(173) = {109, 46}; 
Line(174) = {49, 110}; 
Line(175) = {110, 76}; 
Line(176) = {80, 29}; 
Line(177) = {81, 107}; 
Line(178) = {108, 101}; 
Line(179) = {110, 105}; 
Line(180) = {48, 102}; 
Line(181) = {103, 111}; 
Line(182) = {111, 108}; 
Line(183) = {40, 112}; 
Line(184) = {112, 102}; 
Line(185) = {111, 114}; 
Line(186) = {114, 113}; 
Line(187) = {113, 101}; 
Line(188) = {39, 115}; 
Line(189) = {115, 116}; 
Line(190) = {116, 112}; 
Line(191) = {53, 117}; 
Line(192) = {117, 119}; 
Line(193) = {119, 118}; 
Line(194) = {118, 120}; 
Line(195) = {120, 115}; 
Line(196) = {120, 122}; 
Line(197) = {122, 121}; 
Line(198) = {121, 116}; 
Line(199) = {121, 123}; 
Line(200) = {123, 114}; 
Line(201) = {118, 125}; 
Line(202) = {125, 124}; 
Line(203) = {124, 122}; 
Line(204) = {124, 123}; 
Line(205) = {79, 126}; 
Line(206) = {126, 117}; 
Line(207) = {126, 127}; 
Line(208) = {127, 119}; 
Line(209) = {84, 127}; 
Line(210) = {113, 128}; 
Line(211) = {128, 73}; 
Line(212) = {125, 129}; 
Line(213) = {129, 128}; 
Line(214) = {74, 129}; 
Line(215) = {130, 131}; 
Line(216) = {131, 132}; 
Line(217) = {132, 130}; 
Line(218) = {133, 134}; 
Line(219) = {134, 135}; 
Line(220) = {135, 133}; 
Line(221) = {7, 126}; 
Line(222) = {127, 8}; 
Line(223) = {15, 136}; 
Line(224) = {136, 63}; 
Line(225) = {64, 13}; 
Line(226) = {65, 14}; 
Line(227) = {119, 130}; 
Line(228) = {132, 12}; 
Line(229) = {136, 133}; 
Line(230) = {135, 61}; 
Line(231) = {62, 117}; 
Line(232) = {134, 131}; 
Line(233) = {2, 99}; 
Line(234) = {50, 137}; 
Line(235) = {137, 57}; 
Line(236) = {138, 66}; 
Line(237) = {54, 138}; 
Line(238) = {97, 55}; 
Line(239) = {10, 142}; 
Line(240) = {142, 140}; 
Line(241) = {140, 139}; 
Line(242) = {139, 141}; 
Line(243) = {141, 96}; 
Line(244) = {141, 138}; 
Line(245) = {52, 139}; 
Line(246) = {140, 137}; 
Line(247) = {142, 143}; 
Line(248) = {143, 59}; 
Line(249) = {143, 17}; 
Line(250) = {144, 147}; 
Line(251) = {147, 148}; 
Line(252) = {148, 145}; 
Line(253) = {145, 146}; 
Line(254) = {146, 144}; 
Line(255) = {92, 149}; 
Line(256) = {149, 144}; 
Line(257) = {146, 93}; 
Line(258) = {145, 95}; 
Line(259) = {98, 110}; 
Line(260) = {150, 151}; 
Line(261) = {151, 152}; 
Line(262) = {152, 153}; 
Line(263) = {153, 154}; 
Line(264) = {154, 150}; 
Line(265) = {138, 150}; 
Line(266) = {154, 141}; 
Line(267) = {105, 156}; 
Line(268) = {156, 155}; 
Line(269) = {155, 109}; 
Line(270) = {148, 157}; 
Line(271) = {157, 156}; 
Line(272) = {147, 158}; 
Line(273) = {158, 157}; 
Line(274) = {152, 155}; 
Line(275) = {158, 159}; 
Line(276) = {159, 153}; 
Line(277) = {159, 149}; 
Line(278) = {43, 151}; 
Line(279) = {154, 161}; 
Line(280) = {161, 160}; 
Line(281) = {160, 150}; 
Line(282) = {139, 162}; 
Line(283) = {162, 161}; 
Line(284) = {162, 163}; 
Line(285) = {163, 164}; 
Line(286) = {164, 160}; 
Line(287) = {51, 163}; 
Line(288) = {164, 60}; 
Line(289) = {165, 118}; 
Line(290) = {120, 165}; 
Line(291) = {130, 166}; 
Line(292) = {166, 131}; 
Line(293) = {115, 169}; 
Line(294) = {169, 168}; 
Line(295) = {168, 167}; 
Line(296) = {167, 165}; 
Line(297) = {167, 166}; 
Line(298) = {168, 170}; 
Line(299) = {170, 134}; 
Line(300) = {37, 172}; 
Line(301) = {172, 171}; 
Line(302) = {171, 169}; 
Line(303) = {171, 170}; 
Line(304) = {135, 172}; 
Line(305) = {173, 174}; 
Line(306) = {174, 175}; 
Line(307) = {175, 173}; 
Line(308) = {176, 177}; 
Line(309) = {177, 178}; 
Line(310) = {178, 176}; 
Line(311) = {179, 180}; 
Line(312) = {180, 181}; 
Line(313) = {181, 179}; 
Line(314) = {173, 182}; 
Line(315) = {182, 177}; 
Line(316) = {176, 174}; 
Line(317) = {175, 179}; 
Line(318) = {181, 182}; 
Line(319) = {178, 180}; 
Line(320) = {183, 128}; 
Line(321) = {113, 183}; 
Line(322) = {125, 184}; 
Line(323) = {184, 124}; 
Line(324) = {114, 185}; 
Line(325) = {185, 186}; 
Line(326) = {186, 187}; 
Line(327) = {187, 183}; 
Line(328) = {187, 129}; 
Line(329) = {186, 188}; 
Line(330) = {188, 184}; 
Line(331) = {188, 189}; 
Line(332) = {189, 123}; 
Line(333) = {189, 185}; 
Line(334) = {149, 190}; 
Line(335) = {190, 144}; 
Line(336) = {190, 192}; 
Line(337) = {192, 191}; 
Line(338) = {191, 147}; 
Line(339) = {191, 193}; 
Line(340) = {193, 158}; 
Line(341) = {192, 194}; 
Line(342) = {194, 193}; 
Line(343) = {194, 159}; 
Line(344) = {20, 195}; 
Line(345) = {195, 31}; 
Line(346) = {32, 196}; 
Line(347) = {196, 24}; 
Line(348) = {22, 197}; 
Line(349) = {197, 19}; 
Line(350) = {195, 198}; 
Line(351) = {198, 33}; 
Line(352) = {197, 199}; 
Line(353) = {199, 198}; 
Line(354) = {199, 196}; 
Line(355) = {200, 201}; 
Line(356) = {201, 202}; 
Line(357) = {202, 200}; 
Line(358) = {104, 203}; 
Line(359) = {203, 182}; 
Line(360) = {177, 106}; 
Line(361) = {203, 202}; 
Line(362) = {201, 173}; 
Line(363) = {107, 205}; 
Line(364) = {205, 204}; 
Line(365) = {204, 174}; 
Line(366) = {200, 111}; 
Line(367) = {204, 207}; 
Line(368) = {207, 206}; 
Line(369) = {206, 176}; 
Line(370) = {206, 155}; 
Line(371) = {156, 208}; 
Line(372) = {208, 205}; 
Line(373) = {207, 208}; 
Line(374) = {140, 162}; 
Line(375) = {137, 163}; 
Line(376) = {190, 209}; 
Line(377) = {209, 91}; 
Line(378) = {209, 146}; 
Line(379) = {187, 210}; 
Line(380) = {210, 183}; 
Line(381) = {75, 210}; 
Line(382) = {208, 157}; 
Line(383) = {145, 70}; 
Line(384) = {148, 205}; 
Line(385) = {56, 136}; 
Line(386) = {18, 143}; 
Line(387) = {206, 152}; 
Line(388) = {153, 194}; 
Line(389) = {207, 193}; 
Line(390) = {121, 189}; 
Line(391) = {211, 184}; 
Line(392) = {188, 211}; 
Line(393) = {122, 211}; 
Line(394) = {9, 142}; 
Line(395) = {212, 112}; 
Line(396) = {116, 212}; 
Line(397) = {213, 200}; 
Line(398) = {202, 213}; 
Line(399) = {212, 203}; 
Line(400) = {185, 213}; 
Line(401) = {169, 214}; 
Line(402) = {214, 168}; 
Line(403) = {25, 214}; 
Line(404) = {171, 27}; 
Line(405) = {26, 170}; 
Line(406) = {34, 172}; 
Line(407) = {35, 133}; 
Line(408) = {178, 198}; 
Line(409) = {195, 151}; 
Line(410) = {67, 1}; 
Line(411) = {86, 215}; 
Line(412) = {215, 87}; 
Line(413) = {215, 210}; 
Line(414) = {58, 164}; 
Line(415) = {21, 160}; 
Line(416) = {191, 204}; 
Line(417) = {209, 100}; 
Line(418) = {214, 23}; 
Line(419) = {196, 212}; 
Line(420) = {5, 85}; 
Line(421) = {180, 216}; 
Line(422) = {216, 181}; 
Line(423) = {216, 199}; 
Line(424) = {211, 165}; 
Line(425) = {89, 217}; 
Line(426) = {217, 215}; 
Line(427) = {217, 94}; 
Line(428) = {166, 132}; 
Line(429) = {179, 216}; 
Line(430) = {213, 201}; 
Line Loop(1)={1 ,2 ,3 ,4}; 
Line Loop(2)={-4 ,5 ,6 ,7 ,8 ,9}; 
Line Loop(3)={-9 ,10 ,11 ,12 ,13 ,-1}; 
Line Loop(4)={-8 ,14 ,15 ,-10}; 
Line Loop(5)={16 ,17 ,18 ,19 ,-14 ,-7}; 
Line Loop(6)={-3 ,20 ,21 ,-5}; 
Line Loop(7)={-21 ,22 ,-16 ,-6}; 
Line Loop(8)={-13 ,23 ,24 ,-17 ,-22 ,-20 ,-2}; 
Line Loop(9)={-11 ,-15 ,-19 ,25 ,26}; 
Line Loop(10)={-24 ,27 ,-25 ,-18}; 
Line Loop(11)={-26 ,-27 ,-23 ,-12}; 
Line Loop(12)={28 ,29 ,30}; 
Line Loop(13)={31 ,32 ,33}; 
Line Loop(14)={34 ,35 ,36}; 
Line Loop(15)={37 ,38 ,39}; 
Line Loop(16)={40 ,-33 ,41 ,42 ,43 ,44 ,-28}; 
Line Loop(17)={45 ,46 ,47 ,-35}; 
Line Loop(18)={-46 ,48 ,49 ,50 ,51}; 
Line Loop(19)={52 ,-36 ,-47 ,-51 ,53 ,54 ,55 ,-41 ,-32}; 
Line Loop(20)={-30 ,56 ,57 ,-48 ,-45 ,-34 ,-52 ,-31 ,-40}; 
Line Loop(21)={-50 ,58 ,59 ,-53}; 
Line Loop(22)={-44 ,60 ,61 ,62 ,-56 ,-29}; 
Line Loop(23)={-43 ,63 ,64 ,65 ,-60}; 
Line Loop(24)={-65 ,66 ,67 ,-61}; 
Line Loop(25)={-39 ,68 ,-58 ,-49 ,-57 ,-62 ,-67 ,69}; 
Line Loop(26)={-55 ,70 ,71 ,-63 ,-42}; 
Line Loop(27)={72 ,-70 ,-54 ,-59 ,-68 ,-38}; 
Line Loop(28)={-69 ,-66 ,-64 ,-71 ,-72 ,-37}; 
Line Loop(29)={73 ,74 ,69}; 
Line Loop(30)={75 ,76 ,77}; 
Line Loop(31)={68 ,78 ,79}; 
Line Loop(32)={-67 ,-74 ,80 ,81 ,82}; 
Line Loop(33)={-57 ,83 ,84 ,85 ,86 ,87}; 
Line Loop(34)={88 ,-84 ,89 ,90 ,-75}; 
Line Loop(35)={91 ,92 ,93 ,-78 ,-58}; 
Line Loop(36)={-87 ,94 ,95 ,-91 ,-49}; 
Line Loop(37)={-95 ,96 ,97 ,98 ,-92}; 
Line Loop(38)={-86 ,99 ,-96 ,-94}; 
Line Loop(39)={-77 ,100 ,101 ,-81 ,102 ,-97 ,-99 ,-85 ,-88}; 
Line Loop(40)={-62 ,-82 ,-101 ,103 ,-89 ,-83}; 
Line Loop(41)={-90 ,-103 ,-100 ,-76}; 
Line Loop(42)={-39 ,-79 ,-93 ,-98 ,-102 ,-80 ,-73}; 
Line Loop(43)={104 ,105 ,106}; 
Line Loop(44)={107 ,108 ,109}; 
Line Loop(45)={110 ,111 ,112}; 
Line Loop(46)={113 ,114 ,115 ,116 ,117}; 
Line Loop(47)={-109 ,118 ,-113 ,119 ,120}; 
Line Loop(48)={-117 ,121 ,122 ,123 ,-119}; 
Line Loop(49)={124 ,125 ,126 ,-115 ,127 ,-104}; 
Line Loop(50)={-112 ,128 ,129 ,130 ,-122 ,131}; 
Line Loop(51)={-106 ,132 ,133 ,134 ,-124}; 
Line Loop(52)={-129 ,135 ,-133 ,136 ,137}; 
Line Loop(53)={-127 ,-114 ,-118 ,-108 ,138 ,-136 ,-132 ,-105}; 
Line Loop(54)={-120 ,-123 ,-130 ,-137 ,-138 ,-107}; 
Line Loop(55)={139 ,-125 ,-134 ,-135 ,-128 ,-111}; 
Line Loop(56)={-131 ,-121 ,-116 ,-126 ,-139 ,-110}; 
Line Loop(57)={140 ,141 ,142}; 
Line Loop(58)={-136 ,143 ,144}; 
Line Loop(59)={145 ,146 ,147 ,148 ,149 ,-141}; 
Line Loop(60)={150 ,-148 ,151 ,-118}; 
Line Loop(61)={20 ,152 ,-146 ,153 ,154}; 
Line Loop(62)={-3 ,-154 ,155 ,-105 ,156}; 
Line Loop(63)={157 ,158 ,-142 ,-149 ,-150 ,-108}; 
Line Loop(64)={138 ,-144 ,159 ,-157}; 
Line Loop(65)={160 ,-114 ,-151 ,-147 ,-152 ,21}; 
Line Loop(66)={-156 ,-127 ,-160 ,-5}; 
Line Loop(67)={-155 ,-153 ,-145 ,-140 ,-158 ,-159 ,-143 ,-132}; 
Line Loop(68)={122 ,161 ,162}; 
Line Loop(69)={163 ,164 ,165}; 
Line Loop(70)={166 ,167 ,168 ,169 ,170 ,171 ,-164}; 
Line Loop(71)={172 ,-170 ,173 ,-64}; 
Line Loop(72)={73 ,174 ,175 ,-117 ,176 ,-37}; 
Line Loop(73)={177 ,-167 ,178 ,-161 ,123}; 
Line Loop(74)={-175 ,179 ,-168 ,-177 ,-119}; 
Line Loop(75)={-71 ,180 ,-165 ,-171 ,-172}; 
Line Loop(76)={-176 ,121 ,-162 ,-178 ,-166 ,-163 ,-180 ,-72}; 
Line Loop(77)={-173 ,-169 ,-179 ,-174 ,74 ,-66}; 
Line Loop(78)={181 ,182 ,-166}; 
Line Loop(79)={183 ,184 ,-180 ,-70}; 
Line Loop(80)={-178 ,-182 ,185 ,186 ,187}; 
Line Loop(81)={188 ,189 ,190 ,-183 ,-54}; 
Line Loop(82)={-59 ,78 ,191 ,192 ,193 ,194 ,195 ,-188}; 
Line Loop(83)={-195 ,196 ,197 ,198 ,-189}; 
Line Loop(84)={-184 ,-190 ,-198 ,199 ,200 ,-185 ,-181 ,-163}; 
Line Loop(85)={201 ,202 ,203 ,-196 ,-194}; 
Line Loop(86)={-197 ,-203 ,204 ,-199}; 
Line Loop(87)={-176 ,-116 ,205 ,206 ,-191 ,79 ,-38}; 
Line Loop(88)={-206 ,207 ,208 ,-192}; 
Line Loop(89)={-126 ,209 ,-207 ,-205}; 
Line Loop(90)={-131 ,-162 ,-187 ,210 ,211}; 
Line Loop(91)={-186 ,-200 ,-204 ,-202 ,212 ,213 ,-210}; 
Line Loop(92)={214 ,-212 ,-201 ,-193 ,-208 ,-209 ,-139}; 
Line Loop(93)={-211 ,-213 ,-214 ,-110}; 
Line Loop(94)={215 ,216 ,217}; 
Line Loop(95)={218 ,219 ,220}; 
Line Loop(96)={221 ,207 ,222 ,-7}; 
Line Loop(97)={18 ,223 ,224 ,96 ,225}; 
Line Loop(98)={-225 ,97 ,226 ,17}; 
Line Loop(99)={-222 ,208 ,227 ,-217 ,228 ,-14}; 
Line Loop(100)={-95 ,-224 ,229 ,-220 ,230}; 
Line Loop(101)={16 ,-226 ,98 ,231 ,-206 ,-221}; 
Line Loop(102)={-230 ,-219 ,232 ,-215 ,-227 ,-192 ,-231 ,-92}; 
Line Loop(103)={-228 ,-216 ,-232 ,-218 ,-229 ,-223 ,19}; 
Line Loop(104)={154 ,-2 ,233}; 
Line Loop(105)={234 ,235 ,-88}; 
Line Loop(106)={236 ,101 ,237}; 
Line Loop(107)={-22 ,152 ,238 ,102 ,226}; 
Line Loop(108)={-13 ,239 ,240 ,241 ,242 ,243 ,153 ,-233}; 
Line Loop(109)={-81 ,-238 ,-146 ,-243 ,244 ,-237}; 
Line Loop(110)={-77 ,245 ,-241 ,246 ,-234}; 
Line Loop(111)={-235 ,-246 ,-240 ,247 ,248 ,-85}; 
Line Loop(112)={-225 ,-99 ,-248 ,249 ,24}; 
Line Loop(113)={23 ,-249 ,-247 ,-239}; 
Line Loop(114)={100 ,-236 ,-244 ,-242 ,-245}; 
Line Loop(115)={250 ,251 ,252 ,253 ,254}; 
Line Loop(116)={255 ,256 ,-254 ,257 ,-141}; 
Line Loop(117)={-257 ,-253 ,258 ,149}; 
Line Loop(118)={80 ,-238 ,147 ,259 ,-174}; 
Line Loop(119)={260 ,261 ,262 ,263 ,264}; 
Line Loop(120)={265 ,-264 ,266 ,244}; 
Line Loop(121)={267 ,268 ,269 ,-169}; 
Line Loop(122)={-258 ,-252 ,270 ,271 ,-267 ,-179 ,-259 ,148}; 
Line Loop(123)={272 ,273 ,-270 ,-251}; 
Line Loop(124)={274 ,-268 ,-271 ,-273 ,275 ,276 ,-262}; 
Line Loop(125)={145 ,-243 ,-266 ,-263 ,-276 ,277 ,-255}; 
Line Loop(126)={-256 ,-277 ,-275 ,-272 ,-250}; 
Line Loop(127)={278 ,-260 ,-265 ,-237 ,82 ,-61}; 
Line Loop(128)={-65 ,-173 ,-269 ,-274 ,-261 ,-278}; 
Line Loop(129)={264 ,-281 ,-280 ,-279}; 
Line Loop(130)={282 ,283 ,-279 ,266 ,-242}; 
Line Loop(131)={-280 ,-283 ,284 ,285 ,286}; 
Line Loop(132)={287 ,-284 ,-282 ,-245 ,-76}; 
Line Loop(133)={-103 ,-236 ,265 ,-281 ,-286 ,288}; 
Line Loop(134)={-90 ,-288 ,-285 ,-287}; 
Line Loop(135)={289 ,194 ,290}; 
Line Loop(136)={291 ,292 ,-215}; 
Line Loop(137)={191 ,-231 ,93}; 
Line Loop(138)={290 ,-296 ,-295 ,-294 ,-293 ,-195}; 
Line Loop(139)={-289 ,-296 ,297 ,-291 ,-227 ,193}; 
Line Loop(140)={-292 ,-297 ,-295 ,298 ,299 ,232}; 
Line Loop(141)={300 ,301 ,302 ,-293 ,-188 ,-53}; 
Line Loop(142)={-294 ,-302 ,303 ,-298}; 
Line Loop(143)={-50 ,91 ,-230 ,304 ,-300}; 
Line Loop(144)={-299 ,-303 ,-301 ,-304 ,-219}; 
Line Loop(145)={305 ,306 ,307}; 
Line Loop(146)={308 ,309 ,310}; 
Line Loop(147)={311 ,312 ,313}; 
Line Loop(148)={314 ,315 ,-308 ,316 ,-305}; 
Line Loop(149)={-307 ,317 ,-313 ,318 ,-314}; 
Line Loop(150)={-316 ,-310 ,319 ,-311 ,-317 ,-306}; 
Line Loop(151)={-315 ,-318 ,-312 ,-319 ,-309}; 
Line Loop(152)={320 ,-210 ,321}; 
Line Loop(153)={322 ,323 ,-202}; 
Line Loop(154)={-327 ,-326 ,-325 ,-324 ,186 ,321}; 
Line Loop(155)={-320 ,-327 ,328 ,213}; 
Line Loop(156)={328 ,-212 ,322 ,-330 ,-329 ,326}; 
Line Loop(157)={-204 ,-323 ,-330 ,331 ,332}; 
Line Loop(158)={-200 ,-332 ,333 ,-324}; 
Line Loop(159)={-333 ,-331 ,-329 ,-325}; 
Line Loop(160)={334 ,335 ,-256}; 
Line Loop(161)={-337 ,-336 ,335 ,250 ,-338}; 
Line Loop(162)={-338 ,339 ,340 ,-272}; 
Line Loop(163)={-337 ,341 ,342 ,-339}; 
Line Loop(164)={-340 ,-342 ,343 ,-275}; 
Line Loop(165)={336 ,341 ,343 ,277 ,334}; 
Line Loop(166)={344 ,345 ,44}; 
Line Loop(167)={346 ,347 ,41}; 
Line Loop(168)={-40 ,-349 ,-348}; 
Line Loop(169)={-345 ,350 ,351 ,43}; 
Line Loop(170)={-353 ,-352 ,349 ,28 ,344 ,350}; 
Line Loop(171)={42 ,-351 ,-353 ,354 ,-346}; 
Line Loop(172)={33 ,348 ,352 ,354 ,347}; 
Line Loop(173)={355 ,356 ,357}; 
Line Loop(174)={358 ,359 ,315 ,360 ,171}; 
Line Loop(175)={314 ,-359 ,361 ,-356 ,362}; 
Line Loop(176)={-365 ,-364 ,-363 ,-167 ,-182 ,-366 ,355 ,362 ,305}; 
Line Loop(177)={181 ,-366 ,-357 ,-361 ,-358 ,-164}; 
Line Loop(178)={-365 ,367 ,368 ,369 ,316}; 
Line Loop(179)={-360 ,-308 ,-369 ,370 ,269 ,170}; 
Line Loop(180)={267 ,371 ,372 ,-363 ,168}; 
Line Loop(181)={-370 ,-368 ,373 ,-371 ,268}; 
Line Loop(182)={-364 ,-372 ,-373 ,-367}; 
Line Loop(183)={-374 ,241 ,282}; 
Line Loop(184)={375 ,-284 ,-374 ,246}; 
Line Loop(185)={75 ,287 ,-375 ,-234}; 
Line Loop(186)={-334 ,-255 ,-140 ,-377 ,-376}; 
Line Loop(187)={-377 ,378 ,257 ,142}; 
Line Loop(188)={254 ,-335 ,376 ,378}; 
Line Loop(189)={379 ,380 ,-327}; 
Line Loop(190)={379 ,-381 ,-111 ,214 ,-328}; 
Line Loop(191)={-211 ,-320 ,-380 ,-381 ,112}; 
Line Loop(192)={371 ,382 ,271}; 
Line Loop(193)={-109 ,150 ,-258 ,383}; 
Line Loop(194)={363 ,-384 ,252 ,383 ,-120 ,177}; 
Line Loop(195)={270 ,-382 ,372 ,-384}; 
Line Loop(196)={-175 ,-259 ,151 ,-113}; 
Line Loop(197)={-94 ,385 ,224}; 
Line Loop(198)={386 ,249 ,27}; 
Line Loop(199)={86 ,385 ,-223 ,25 ,386 ,248}; 
Line Loop(200)={-370 ,387 ,274}; 
Line Loop(201)={343 ,276 ,388}; 
Line Loop(202)={387 ,262 ,388 ,342 ,-389 ,368}; 
Line Loop(203)={-273 ,-340 ,-389 ,373 ,382}; 
Line Loop(204)={-199 ,390 ,332}; 
Line Loop(205)={391 ,-330 ,392}; 
Line Loop(206)={197 ,390 ,-331 ,392 ,-393}; 
Line Loop(207)={-203 ,-323 ,-391 ,-393}; 
Line Loop(208)={394 ,-239 ,-12}; 
Line Loop(209)={-386 ,26 ,394 ,247}; 
Line Loop(210)={395 ,-190 ,396}; 
Line Loop(211)={397 ,-357 ,398}; 
Line Loop(212)={-184 ,-395 ,399 ,-358 ,165}; 
Line Loop(213)={198 ,396 ,399 ,361 ,398 ,-400 ,-333 ,-390}; 
Line Loop(214)={-366 ,-397 ,-400 ,-324 ,-185}; 
Line Loop(215)={-402 ,-401 ,294}; 
Line Loop(216)={403 ,-401 ,-302 ,404 ,36}; 
Line Loop(217)={-34 ,403 ,402 ,298 ,-405}; 
Line Loop(218)={35 ,-404 ,303 ,-405}; 
Line Loop(219)={51 ,406 ,-300}; 
Line Loop(220)={-46 ,407 ,-220 ,304 ,-406}; 
Line Loop(221)={87 ,-48 ,407 ,-229 ,-385}; 
Line Loop(222)={-407 ,-45 ,405 ,299 ,-218}; 
Line Loop(223)={-404 ,-301 ,-406 ,47}; 
Line Loop(224)={63 ,172 ,-360 ,309 ,408 ,351}; 
Line Loop(225)={-345 ,409 ,-278 ,-60}; 
Line Loop(226)={369 ,-310 ,408 ,-350 ,409 ,261 ,-387}; 
Line Loop(227)={-1 ,-410 ,-106 ,-155 ,-233}; 
Line Loop(228)={-410 ,104 ,156 ,4}; 
Line Loop(229)={411 ,412 ,129}; 
Line Loop(230)={128 ,-412 ,413 ,-381}; 
Line Loop(231)={413 ,380 ,-321 ,187 ,-161 ,-130 ,411}; 
Line Loop(232)={288 ,-89 ,414}; 
Line Loop(233)={415 ,-286 ,-414 ,-83 ,-56}; 
Line Loop(234)={260 ,-409 ,-344 ,29 ,415 ,281}; 
Line Loop(235)={-416 ,338 ,251 ,384 ,364}; 
Line Loop(236)={389 ,-339 ,416 ,367}; 
Line Loop(237)={158 ,-377 ,417}; 
Line Loop(238)={253 ,-378 ,417 ,-157 ,-107 ,-383}; 
Line Loop(239)={418 ,52 ,403}; 
Line Loop(240)={346 ,419 ,395 ,-183 ,55}; 
Line Loop(241)={293 ,401 ,418 ,32 ,-347 ,419 ,-396 ,-189}; 
Line Loop(242)={285 ,-414 ,84 ,-235 ,375}; 
Line Loop(243)={-222 ,-209 ,-125 ,-420 ,-8}; 
Line Loop(244)={6 ,221 ,-205 ,-115 ,-160}; 
Line Loop(245)={-410 ,124 ,-420 ,9}; 
Line Loop(246)={-312 ,421 ,422}; 
Line Loop(247)={-399 ,-419 ,-354 ,-423 ,422 ,318 ,-359}; 
Line Loop(248)={408 ,-353 ,-423 ,-421 ,-319}; 
Line Loop(249)={-201 ,-289 ,-424 ,391 ,-322}; 
Line Loop(250)={196 ,393 ,424 ,-290}; 
Line Loop(251)={-426 ,-425 ,-135 ,-412}; 
Line Loop(252)={-427 ,426 ,-411 ,-137 ,-144}; 
Line Loop(253)={-143 ,133 ,425 ,427}; 
Line Loop(254)={-291 ,-217 ,-428}; 
Line Loop(255)={428 ,-216 ,-292}; 
Line Loop(256)={-313 ,-422 ,-429}; 
Line Loop(257)={-421 ,-311 ,429}; 
Line Loop(258)={-398 ,-356 ,-430}; 
Line Loop(259)={430 ,-355 ,-397}; 
Plane Surface(1)={1}; 
Plane Surface(2)={2}; 
Plane Surface(3)={3}; 
Plane Surface(4)={4}; 
Plane Surface(5)={5}; 
Plane Surface(6)={6}; 
Plane Surface(7)={7}; 
Plane Surface(8)={8}; 
Plane Surface(9)={9}; 
Plane Surface(10)={10}; 
Plane Surface(11)={11}; 
Plane Surface(12)={12}; 
Plane Surface(13)={13}; 
Plane Surface(14)={14}; 
Plane Surface(15)={15}; 
Plane Surface(16)={16}; 
Plane Surface(17)={17}; 
Plane Surface(18)={18}; 
Plane Surface(19)={19}; 
Plane Surface(20)={20}; 
Plane Surface(21)={21}; 
Plane Surface(22)={22}; 
Plane Surface(23)={23}; 
Plane Surface(24)={24}; 
Plane Surface(25)={25}; 
Plane Surface(26)={26}; 
Plane Surface(27)={27}; 
Plane Surface(28)={28}; 
Plane Surface(29)={29}; 
Plane Surface(30)={30}; 
Plane Surface(31)={31}; 
Plane Surface(32)={32}; 
Plane Surface(33)={33}; 
Plane Surface(34)={34}; 
Plane Surface(35)={35}; 
Plane Surface(36)={36}; 
Plane Surface(37)={37}; 
Plane Surface(38)={38}; 
Plane Surface(39)={39}; 
Plane Surface(40)={40}; 
Plane Surface(41)={41}; 
Plane Surface(42)={42}; 
Plane Surface(43)={43}; 
Plane Surface(44)={44}; 
Plane Surface(45)={45}; 
Plane Surface(46)={46}; 
Plane Surface(47)={47}; 
Plane Surface(48)={48}; 
Plane Surface(49)={49}; 
Plane Surface(50)={50}; 
Plane Surface(51)={51}; 
Plane Surface(52)={52}; 
Plane Surface(53)={53}; 
Plane Surface(54)={54}; 
Plane Surface(55)={55}; 
Plane Surface(56)={56}; 
Plane Surface(57)={57}; 
Plane Surface(58)={58}; 
Plane Surface(59)={59}; 
Plane Surface(60)={60}; 
Plane Surface(61)={61}; 
Plane Surface(62)={62}; 
Plane Surface(63)={63}; 
Plane Surface(64)={64}; 
Plane Surface(65)={65}; 
Plane Surface(66)={66}; 
Plane Surface(67)={67}; 
Plane Surface(68)={68}; 
Plane Surface(69)={69}; 
Plane Surface(70)={70}; 
Plane Surface(71)={71}; 
Plane Surface(72)={72}; 
Plane Surface(73)={73}; 
Plane Surface(74)={74}; 
Plane Surface(75)={75}; 
Plane Surface(76)={76}; 
Plane Surface(77)={77}; 
Plane Surface(78)={78}; 
Plane Surface(79)={79}; 
Plane Surface(80)={80}; 
Plane Surface(81)={81}; 
Plane Surface(82)={82}; 
Plane Surface(83)={83}; 
Plane Surface(84)={84}; 
Plane Surface(85)={85}; 
Plane Surface(86)={86}; 
Plane Surface(87)={87}; 
Plane Surface(88)={88}; 
Plane Surface(89)={89}; 
Plane Surface(90)={90}; 
Plane Surface(91)={91}; 
Plane Surface(92)={92}; 
Plane Surface(93)={93}; 
Plane Surface(94)={94}; 
Plane Surface(95)={95}; 
Plane Surface(96)={96}; 
Plane Surface(97)={97}; 
Plane Surface(98)={98}; 
Plane Surface(99)={99}; 
Plane Surface(100)={100}; 
Plane Surface(101)={101}; 
Plane Surface(102)={102}; 
Plane Surface(103)={103}; 
Plane Surface(104)={104}; 
Plane Surface(105)={105}; 
Plane Surface(106)={106}; 
Plane Surface(107)={107}; 
Plane Surface(108)={108}; 
Plane Surface(109)={109}; 
Plane Surface(110)={110}; 
Plane Surface(111)={111}; 
Plane Surface(112)={112}; 
Plane Surface(113)={113}; 
Plane Surface(114)={114}; 
Plane Surface(115)={115}; 
Plane Surface(116)={116}; 
Plane Surface(117)={117}; 
Plane Surface(118)={118}; 
Plane Surface(119)={119}; 
Plane Surface(120)={120}; 
Plane Surface(121)={121}; 
Plane Surface(122)={122}; 
Plane Surface(123)={123}; 
Plane Surface(124)={124}; 
Plane Surface(125)={125}; 
Plane Surface(126)={126}; 
Plane Surface(127)={127}; 
Plane Surface(128)={128}; 
Plane Surface(129)={129}; 
Plane Surface(130)={130}; 
Plane Surface(131)={131}; 
Plane Surface(132)={132}; 
Plane Surface(133)={133}; 
Plane Surface(134)={134}; 
Plane Surface(135)={135}; 
Plane Surface(136)={136}; 
Plane Surface(137)={137}; 
Plane Surface(138)={138}; 
Plane Surface(139)={139}; 
Plane Surface(140)={140}; 
Plane Surface(141)={141}; 
Plane Surface(142)={142}; 
Plane Surface(143)={143}; 
Plane Surface(144)={144}; 
Plane Surface(145)={145}; 
Plane Surface(146)={146}; 
Plane Surface(147)={147}; 
Plane Surface(148)={148}; 
Plane Surface(149)={149}; 
Plane Surface(150)={150}; 
Plane Surface(151)={151}; 
Plane Surface(152)={152}; 
Plane Surface(153)={153}; 
Plane Surface(154)={154}; 
Plane Surface(155)={155}; 
Plane Surface(156)={156}; 
Plane Surface(157)={157}; 
Plane Surface(158)={158}; 
Plane Surface(159)={159}; 
Plane Surface(160)={160}; 
Plane Surface(161)={161}; 
Plane Surface(162)={162}; 
Plane Surface(163)={163}; 
Plane Surface(164)={164}; 
Plane Surface(165)={165}; 
Plane Surface(166)={166}; 
Plane Surface(167)={167}; 
Plane Surface(168)={168}; 
Plane Surface(169)={169}; 
Plane Surface(170)={170}; 
Plane Surface(171)={171}; 
Plane Surface(172)={172}; 
Plane Surface(173)={173}; 
Plane Surface(174)={174}; 
Plane Surface(175)={175}; 
Plane Surface(176)={176}; 
Plane Surface(177)={177}; 
Plane Surface(178)={178}; 
Plane Surface(179)={179}; 
Plane Surface(180)={180}; 
Plane Surface(181)={181}; 
Plane Surface(182)={182}; 
Plane Surface(183)={183}; 
Plane Surface(184)={184}; 
Plane Surface(185)={185}; 
Plane Surface(186)={186}; 
Plane Surface(187)={187}; 
Plane Surface(188)={188}; 
Plane Surface(189)={189}; 
Plane Surface(190)={190}; 
Plane Surface(191)={191}; 
Plane Surface(192)={192}; 
Plane Surface(193)={193}; 
Plane Surface(194)={194}; 
Plane Surface(195)={195}; 
Plane Surface(196)={196}; 
Plane Surface(197)={197}; 
Plane Surface(198)={198}; 
Plane Surface(199)={199}; 
Plane Surface(200)={200}; 
Plane Surface(201)={201}; 
Plane Surface(202)={202}; 
Plane Surface(203)={203}; 
Plane Surface(204)={204}; 
Plane Surface(205)={205}; 
Plane Surface(206)={206}; 
Plane Surface(207)={207}; 
Plane Surface(208)={208}; 
Plane Surface(209)={209}; 
Plane Surface(210)={210}; 
Plane Surface(211)={211}; 
Plane Surface(212)={212}; 
Plane Surface(213)={213}; 
Plane Surface(214)={214}; 
Plane Surface(215)={215}; 
Plane Surface(216)={216}; 
Plane Surface(217)={217}; 
Plane Surface(218)={218}; 
Plane Surface(219)={219}; 
Plane Surface(220)={220}; 
Plane Surface(221)={221}; 
Plane Surface(222)={222}; 
Plane Surface(223)={223}; 
Plane Surface(224)={224}; 
Plane Surface(225)={225}; 
Plane Surface(226)={226}; 
Plane Surface(227)={227}; 
Plane Surface(228)={228}; 
Plane Surface(229)={229}; 
Plane Surface(230)={230}; 
Plane Surface(231)={231}; 
Plane Surface(232)={232}; 
Plane Surface(233)={233}; 
Plane Surface(234)={234}; 
Plane Surface(235)={235}; 
Plane Surface(236)={236}; 
Plane Surface(237)={237}; 
Plane Surface(238)={238}; 
Plane Surface(239)={239}; 
Plane Surface(240)={240}; 
Plane Surface(241)={241}; 
Plane Surface(242)={242}; 
Plane Surface(243)={243}; 
Plane Surface(244)={244}; 
Plane Surface(245)={245}; 
Plane Surface(246)={246}; 
Plane Surface(247)={247}; 
Plane Surface(248)={248}; 
Plane Surface(249)={249}; 
Plane Surface(250)={250}; 
Plane Surface(251)={251}; 
Plane Surface(252)={252}; 
Plane Surface(253)={253}; 
Plane Surface(254)={254}; 
Plane Surface(255)={255}; 
Plane Surface(256)={256}; 
Plane Surface(257)={257}; 
Plane Surface(258)={258}; 
Plane Surface(259)={259}; 
Surface Loop(1)={1 ,2 ,3 ,4 ,5 ,6 ,7 ,8 ,9 ,10 ,11}; 
Surface Loop(2)={12 ,13 ,14 ,15 ,16 ,17 ,18 ,19 ,20 ,21 ,22 ,23 ,24 ,25 ,26 ,27 ,28}; 
Surface Loop(3)={29 ,30 ,31 ,32 ,33 ,34 ,35 ,36 ,37 ,38 ,39 ,40 ,41 ,42 ,25}; 
Surface Loop(4)={43 ,44 ,45 ,46 ,47 ,48 ,49 ,50 ,51 ,52 ,53 ,54 ,55 ,56}; 
Surface Loop(5)={57 ,58 ,59 ,60 ,61 ,62 ,63 ,64 ,65 ,66 ,6 ,67 ,53}; 
Surface Loop(6)={68 ,69 ,29 ,70 ,71 ,72 ,73 ,74 ,48 ,75 ,76 ,77 ,28}; 
Surface Loop(7)={31 ,78 ,79 ,80 ,27 ,81 ,82 ,83 ,76 ,84 ,85 ,86 ,87 ,88 ,89 ,90 ,91 ,56 ,92 ,93}; 
Surface Loop(8)={94 ,95 ,96 ,97 ,37 ,5 ,98 ,99 ,100 ,101 ,88 ,102 ,103}; 
Surface Loop(9)={104 ,105 ,106 ,107 ,8 ,98 ,108 ,61 ,109 ,110 ,111 ,112 ,113 ,39 ,114}; 
Surface Loop(10)={109 ,115 ,116 ,117 ,59 ,118 ,119 ,120 ,121 ,122 ,123 ,124 ,125 ,126 ,127 ,128 ,32 ,77 ,24}; 
Surface Loop(11)={129 ,130 ,120 ,114 ,131 ,132 ,133 ,41 ,134}; 
Surface Loop(12)={135 ,136 ,137 ,138 ,139 ,140 ,141 ,142 ,143 ,102 ,144 ,82 ,35 ,21}; 
Surface Loop(13)={145 ,146 ,147 ,148 ,149 ,150 ,151}; 
Surface Loop(14)={152 ,153 ,91 ,154 ,155 ,156 ,157 ,158 ,159}; 
Surface Loop(15)={160 ,161 ,162 ,163 ,164 ,126 ,165}; 
Surface Loop(16)={166 ,167 ,168 ,169 ,170 ,171 ,172 ,16}; 
Surface Loop(17)={78 ,173 ,148 ,174 ,175 ,176 ,177 ,70 ,121 ,178 ,179 ,180 ,181 ,182}; 
Surface Loop(18)={183 ,30 ,184 ,132 ,110 ,185}; 
Surface Loop(19)={160 ,57 ,116 ,186 ,187 ,188}; 
Surface Loop(20)={189 ,45 ,190 ,155 ,191 ,93}; 
Surface Loop(21)={192 ,193 ,194 ,74 ,195 ,47 ,196 ,60 ,122 ,180}; 
Surface Loop(22)={197 ,198 ,10 ,97 ,38 ,112 ,199}; 
Surface Loop(23)={200 ,192 ,201 ,202 ,203 ,181 ,124 ,164}; 
Surface Loop(24)={204 ,205 ,206 ,86 ,157 ,207}; 
Surface Loop(25)={198 ,208 ,113 ,11 ,209}; 
Surface Loop(26)={210 ,204 ,69 ,211 ,212 ,158 ,84 ,213 ,177 ,214}; 
Surface Loop(27)={215 ,14 ,216 ,217 ,142 ,218}; 
Surface Loop(28)={197 ,219 ,220 ,221 ,36 ,100 ,18 ,143}; 
Surface Loop(29)={95 ,222 ,218 ,144 ,220 ,223 ,17}; 
Surface Loop(30)={146 ,200 ,224 ,23 ,169 ,225 ,226 ,128 ,179 ,71}; 
Surface Loop(31)={104 ,43 ,1 ,227 ,62 ,228}; 
Surface Loop(32)={229 ,68 ,152 ,50 ,230 ,231 ,191 ,90}; 
Surface Loop(33)={232 ,106 ,166 ,233 ,133 ,40 ,234 ,127 ,22 ,225}; 
Surface Loop(34)={123 ,203 ,195 ,182 ,235 ,236 ,162}; 
Surface Loop(35)={44 ,237 ,238 ,193 ,117 ,63 ,187}; 
Surface Loop(36)={210 ,167 ,239 ,219 ,81 ,240 ,223 ,241 ,216 ,19 ,141}; 
Surface Loop(37)={105 ,232 ,242 ,185 ,34 ,134}; 
Surface Loop(38)={243 ,244 ,89 ,96 ,2 ,66 ,49 ,245 ,228}; 
Surface Loop(39)={246 ,171 ,247 ,224 ,174 ,75 ,212 ,26 ,240 ,79 ,248 ,151}; 
Surface Loop(40)={135 ,153 ,249 ,250 ,85 ,207}; 
Surface Loop(41)={229 ,58 ,251 ,252 ,52 ,253}; 
Surface Loop(42)={136 ,94 ,254 ,255}; 
Surface Loop(43)={256 ,257 ,147 ,246}; 
Surface Loop(44)={258 ,173 ,259 ,211}; 
Volume(1)={1}; 
Volume(2)={2}; 
Volume(3)={3}; 
Volume(4)={4}; 
Volume(5)={5}; 
Volume(6)={6}; 
Volume(7)={7}; 
Volume(8)={8}; 
Volume(9)={9}; 
Volume(10)={10}; 
Volume(11)={11}; 
Volume(12)={12}; 
Volume(13)={13}; 
Volume(14)={14}; 
Volume(15)={15}; 
Volume(16)={16}; 
Volume(17)={17}; 
Volume(18)={18}; 
Volume(19)={19}; 
Volume(20)={20}; 
Volume(21)={21}; 
Volume(22)={22}; 
Volume(23)={23}; 
Volume(24)={24}; 
Volume(25)={25}; 
Volume(26)={26}; 
Volume(27)={27}; 
Volume(28)={28}; 
Volume(29)={29}; 
Volume(30)={30}; 
Volume(31)={31}; 
Volume(32)={32}; 
Volume(33)={33}; 
Volume(34)={34}; 
Volume(35)={35}; 
Volume(36)={36}; 
Volume(37)={37}; 
Volume(38)={38}; 
Volume(39)={39}; 
Volume(40)={40}; 
Volume(41)={41}; 
Volume(42)={42}; 
Volume(43)={43}; 
Volume(44)={44}; 
Physical Surface(1000)={1}; 
Physical Surface(2000)={2}; 
Physical Surface(3000)={3}; 
Physical Surface(4000)={4}; 
Physical Surface(5000)={5}; 
Physical Surface(6000)={6}; 
Physical Surface(7000)={7}; 
Physical Surface(8000)={8}; 
Physical Surface(9000)={9}; 
Physical Surface(10000)={10}; 
Physical Surface(11000)={11}; 
Physical Surface(12000)={12}; 
Physical Surface(13000)={13}; 
Physical Surface(14000)={14}; 
Physical Surface(15000)={15}; 
Physical Surface(16000)={16}; 
Physical Surface(17000)={17}; 
Physical Surface(18000)={18}; 
Physical Surface(19000)={19}; 
Physical Surface(20000)={20}; 
Physical Surface(21000)={21}; 
Physical Surface(22000)={22}; 
Physical Surface(23000)={23}; 
Physical Surface(24000)={24}; 
Physical Surface(25000)={25}; 
Physical Surface(26000)={26}; 
Physical Surface(27000)={27}; 
Physical Surface(28000)={28}; 
Physical Surface(29000)={29}; 
Physical Surface(30000)={30}; 
Physical Surface(31000)={31}; 
Physical Surface(32000)={32}; 
Physical Surface(33000)={33}; 
Physical Surface(34000)={34}; 
Physical Surface(35000)={35}; 
Physical Surface(36000)={36}; 
Physical Surface(37000)={37}; 
Physical Surface(38000)={38}; 
Physical Surface(39000)={39}; 
Physical Surface(40000)={40}; 
Physical Surface(41000)={41}; 
Physical Surface(42000)={42}; 
Physical Surface(43000)={43}; 
Physical Surface(44000)={44}; 
Physical Surface(45000)={45}; 
Physical Surface(46000)={46}; 
Physical Surface(47000)={47}; 
Physical Surface(48000)={48}; 
Physical Surface(49000)={49}; 
Physical Surface(50000)={50}; 
Physical Surface(51000)={51}; 
Physical Surface(52000)={52}; 
Physical Surface(53000)={53}; 
Physical Surface(54000)={54}; 
Physical Surface(55000)={55}; 
Physical Surface(56000)={56}; 
Physical Surface(57000)={57}; 
Physical Surface(58000)={58}; 
Physical Surface(59000)={59}; 
Physical Surface(60000)={60}; 
Physical Surface(61000)={61}; 
Physical Surface(62000)={62}; 
Physical Surface(63000)={63}; 
Physical Surface(64000)={64}; 
Physical Surface(65000)={65}; 
Physical Surface(66000)={66}; 
Physical Surface(67000)={67}; 
Physical Surface(68000)={68}; 
Physical Surface(69000)={69}; 
Physical Surface(70000)={70}; 
Physical Surface(71000)={71}; 
Physical Surface(72000)={72}; 
Physical Surface(73000)={73}; 
Physical Surface(74000)={74}; 
Physical Surface(75000)={75}; 
Physical Surface(76000)={76}; 
Physical Surface(77000)={77}; 
Physical Surface(78000)={78}; 
Physical Surface(79000)={79}; 
Physical Surface(80000)={80}; 
Physical Surface(81000)={81}; 
Physical Surface(82000)={82}; 
Physical Surface(83000)={83}; 
Physical Surface(84000)={84}; 
Physical Surface(85000)={85}; 
Physical Surface(86000)={86}; 
Physical Surface(87000)={87}; 
Physical Surface(88000)={88}; 
Physical Surface(89000)={89}; 
Physical Surface(90000)={90}; 
Physical Surface(91000)={91}; 
Physical Surface(92000)={92}; 
Physical Surface(93000)={93}; 
Physical Surface(94000)={94}; 
Physical Surface(95000)={95}; 
Physical Surface(96000)={96}; 
Physical Surface(97000)={97}; 
Physical Surface(98000)={98}; 
Physical Surface(99000)={99}; 
Physical Surface(100000)={100}; 
Physical Surface(101000)={101}; 
Physical Surface(102000)={102}; 
Physical Surface(103000)={103}; 
Physical Surface(104000)={104}; 
Physical Surface(105000)={105}; 
Physical Surface(106000)={106}; 
Physical Surface(107000)={107}; 
Physical Surface(108000)={108}; 
Physical Surface(109000)={109}; 
Physical Surface(110000)={110}; 
Physical Surface(111000)={111}; 
Physical Surface(112000)={112}; 
Physical Surface(113000)={113}; 
Physical Surface(114000)={114}; 
Physical Surface(115000)={115}; 
Physical Surface(116000)={116}; 
Physical Surface(117000)={117}; 
Physical Surface(118000)={118}; 
Physical Surface(119000)={119}; 
Physical Surface(120000)={120}; 
Physical Surface(121000)={121}; 
Physical Surface(122000)={122}; 
Physical Surface(123000)={123}; 
Physical Surface(124000)={124}; 
Physical Surface(125000)={125}; 
Physical Surface(126000)={126}; 
Physical Surface(127000)={127}; 
Physical Surface(128000)={128}; 
Physical Surface(129000)={129}; 
Physical Surface(130000)={130}; 
Physical Surface(131000)={131}; 
Physical Surface(132000)={132}; 
Physical Surface(133000)={133}; 
Physical Surface(134000)={134}; 
Physical Surface(135000)={135}; 
Physical Surface(136000)={136}; 
Physical Surface(137000)={137}; 
Physical Surface(138000)={138}; 
Physical Surface(139000)={139}; 
Physical Surface(140000)={140}; 
Physical Surface(141000)={141}; 
Physical Surface(142000)={142}; 
Physical Surface(143000)={143}; 
Physical Surface(144000)={144}; 
Physical Surface(145000)={145}; 
Physical Surface(146000)={146}; 
Physical Surface(147000)={147}; 
Physical Surface(148000)={148}; 
Physical Surface(149000)={149}; 
Physical Surface(150000)={150}; 
Physical Surface(151000)={151}; 
Physical Surface(152000)={152}; 
Physical Surface(153000)={153}; 
Physical Surface(154000)={154}; 
Physical Surface(155000)={155}; 
Physical Surface(156000)={156}; 
Physical Surface(157000)={157}; 
Physical Surface(158000)={158}; 
Physical Surface(159000)={159}; 
Physical Surface(160000)={160}; 
Physical Surface(161000)={161}; 
Physical Surface(162000)={162}; 
Physical Surface(163000)={163}; 
Physical Surface(164000)={164}; 
Physical Surface(165000)={165}; 
Physical Surface(166000)={166}; 
Physical Surface(167000)={167}; 
Physical Surface(168000)={168}; 
Physical Surface(169000)={169}; 
Physical Surface(170000)={170}; 
Physical Surface(171000)={171}; 
Physical Surface(172000)={172}; 
Physical Surface(173000)={173}; 
Physical Surface(174000)={174}; 
Physical Surface(175000)={175}; 
Physical Surface(176000)={176}; 
Physical Surface(177000)={177}; 
Physical Surface(178000)={178}; 
Physical Surface(179000)={179}; 
Physical Surface(180000)={180}; 
Physical Surface(181000)={181}; 
Physical Surface(182000)={182}; 
Physical Surface(183000)={183}; 
Physical Surface(184000)={184}; 
Physical Surface(185000)={185}; 
Physical Surface(186000)={186}; 
Physical Surface(187000)={187}; 
Physical Surface(188000)={188}; 
Physical Surface(189000)={189}; 
Physical Surface(190000)={190}; 
Physical Surface(191000)={191}; 
Physical Surface(192000)={192}; 
Physical Surface(193000)={193}; 
Physical Surface(194000)={194}; 
Physical Surface(195000)={195}; 
Physical Surface(196000)={196}; 
Physical Surface(197000)={197}; 
Physical Surface(198000)={198}; 
Physical Surface(199000)={199}; 
Physical Surface(200000)={200}; 
Physical Surface(201000)={201}; 
Physical Surface(202000)={202}; 
Physical Surface(203000)={203}; 
Physical Surface(204000)={204}; 
Physical Surface(205000)={205}; 
Physical Surface(206000)={206}; 
Physical Surface(207000)={207}; 
Physical Surface(208000)={208}; 
Physical Surface(209000)={209}; 
Physical Surface(210000)={210}; 
Physical Surface(211000)={211}; 
Physical Surface(212000)={212}; 
Physical Surface(213000)={213}; 
Physical Surface(214000)={214}; 
Physical Surface(215000)={215}; 
Physical Surface(216000)={216}; 
Physical Surface(217000)={217}; 
Physical Surface(218000)={218}; 
Physical Surface(219000)={219}; 
Physical Surface(220000)={220}; 
Physical Surface(221000)={221}; 
Physical Surface(222000)={222}; 
Physical Surface(223000)={223}; 
Physical Surface(224000)={224}; 
Physical Surface(225000)={225}; 
Physical Surface(226000)={226}; 
Physical Surface(227000)={227}; 
Physical Surface(228000)={228}; 
Physical Surface(229000)={229}; 
Physical Surface(230000)={230}; 
Physical Surface(231000)={231}; 
Physical Surface(232000)={232}; 
Physical Surface(233000)={233}; 
Physical Surface(234000)={234}; 
Physical Surface(235000)={235}; 
Physical Surface(236000)={236}; 
Physical Surface(237000)={237}; 
Physical Surface(238000)={238}; 
Physical Surface(239000)={239}; 
Physical Surface(240000)={240}; 
Physical Surface(241000)={241}; 
Physical Surface(242000)={242}; 
Physical Surface(243000)={243}; 
Physical Surface(244000)={244}; 
Physical Surface(245000)={245}; 
Physical Surface(246000)={246}; 
Physical Surface(247000)={247}; 
Physical Surface(248000)={248}; 
Physical Surface(249000)={249}; 
Physical Surface(250000)={250}; 
Physical Surface(251000)={251}; 
Physical Surface(252000)={252}; 
Physical Surface(253000)={253}; 
Physical Surface(254000)={254}; 
Physical Surface(255000)={255}; 
Physical Surface(256000)={256}; 
Physical Surface(257000)={257}; 
Physical Surface(258000)={258}; 
Physical Surface(259000)={259}; 
Physical Volume(0)={1};
Physical Volume(1)={2};
Physical Volume(2)={3};
Physical Volume(3)={4};
Physical Volume(4)={5};
Physical Volume(5)={6};
Physical Volume(6)={7};
Physical Volume(7)={8};
Physical Volume(8)={9};
Physical Volume(9)={10};
Physical Volume(10)={11};
Physical Volume(11)={12};
Physical Volume(12)={13};
Physical Volume(13)={14};
Physical Volume(14)={15};
Physical Volume(15)={16};
Physical Volume(16)={17};
Physical Volume(17)={18};
Physical Volume(18)={19};
Physical Volume(19)={20};
Physical Volume(20)={21};
Physical Volume(21)={22};
Physical Volume(22)={23};
Physical Volume(23)={24};
Physical Volume(24)={25};
Physical Volume(25)={26};
Physical Volume(26)={27};
Physical Volume(27)={28};
Physical Volume(28)={29};
Physical Volume(29)={30};
Physical Volume(30)={31};
Physical Volume(31)={32};
Physical Volume(32)={33};
Physical Volume(33)={34};
Physical Volume(34)={35};
Physical Volume(35)={36};
Physical Volume(36)={37};
Physical Volume(37)={38};
Physical Volume(38)={39};
Physical Volume(39)={40};
Physical Volume(40)={41};
Physical Volume(41)={42};
Physical Volume(42)={43};
Physical Volume(43)={44};
